<svg width="100%" height="100%" id="svg" viewBox="0 0 1440 390" xmlns="http://www.w3.org/2000/svg" class="transition duration-300 ease-in-out delay-150"><path d="M 0,400 C 0,400 0,100 0,100 C 30.471695230503528,113.78215187230731 60.943390461007056,127.56430374461463 104,123 C 147.05660953899294,118.43569625538537 202.69813338647538,95.52493689384883 250,94 C 297.3018666135246,92.47506310615117 336.2640759930915,112.33594867999014 372,113 C 407.7359240069085,113.66405132000986 440.2455626411585,95.13126838619067 476,93 C 511.7544373588415,90.86873161380933 550.7536734422745,105.13897777524721 593,117 C 635.2463265577255,128.8610222247528 680.7397435897437,138.3128205128205 720,132 C 759.2602564102563,125.6871794871795 792.287352198751,103.60974017347074 835,97 C 877.712647801249,90.39025982652926 930.1108476152517,99.24821879329652 967,99 C 1003.8891523847483,98.75178120670348 1025.269257340242,89.3973846533432 1060,91 C 1094.730742659758,92.6026153466568 1142.812123023781,105.16224259333067 1193,109 C 1243.187876976219,112.83775740666933 1295.482250564634,107.9536449733341 1337,105 C 1378.517749435366,102.0463550266659 1409.258874717683,101.02317751333295 1440,100 C 1440,100 1440,400 1440,400 Z" stroke="none" stroke-width="0" fill="#0f1d1c" fill-opacity="0.4" class="transition-all duration-300 ease-in-out delay-150 path-0"></path><path d="M 0,400 C 0,400 0,200 0,200 C 27.955574218527588,208.44183226100324 55.911148437055175,216.88366452200648 101,211 C 146.08885156294482,205.11633547799352 208.31098047030684,184.9071741729773 250,188 C 291.68901952969316,191.0928258270227 312.84492968171725,217.4876387860844 348,226 C 383.15507031828275,234.5123612139156 432.3093008028241,225.14227068268514 472,223 C 511.6906991971759,220.85772931731486 541.9178671069864,225.9432784831749 577,225 C 612.0821328930136,224.0567215168251 652.0192307692306,217.08461538461535 700,216 C 747.9807692307694,214.91538461538465 804.0052098160908,219.71825997836362 847,215 C 889.9947901839092,210.28174002163638 919.9599299664065,196.04234470193018 953,185 C 986.0400700335935,173.95765529806982 1022.1550703182827,166.11236121391562 1067,170 C 1111.8449296817173,173.88763878608438 1165.4197887604626,189.5082104424073 1212,204 C 1258.5802112395374,218.4917895575927 1298.165774639868,231.85479701645508 1335,231 C 1371.834225360132,230.14520298354492 1405.917112680066,215.07260149177245 1440,200 C 1440,200 1440,400 1440,400 Z" stroke="none" stroke-width="0" fill="#0f1d1c" fill-opacity="0.53" class="transition-all duration-300 ease-in-out delay-150 path-1"></path><path d="M 0,400 C 0,400 0,300 0,300 C 42.78972745734404,320.8360729943631 85.57945491468809,341.6721459887263 120,336 C 154.42054508531191,330.3278540112737 180.4719077985917,298.147489039458 225,288 C 269.5280922014083,277.852510960542 332.532913890945,289.7378978534419 376,294 C 419.467086109055,298.2621021465581 443.39643663762837,294.9009195467745 472,298 C 500.60356336237163,301.0990804532255 533.8813395585415,310.6584239594602 581,309 C 628.1186604414585,307.3415760405398 689.0782051282051,294.46538461538455 734,298 C 778.9217948717949,301.53461538461545 807.805839928638,321.48003757900136 839,324 C 870.194160071362,326.51996242099864 903.6984351572432,311.6144650686102 952,316 C 1000.3015648427568,320.3855349313898 1063.4004194423885,344.0621021465581 1100,331 C 1136.5995805576115,317.9378978534419 1146.6998870732032,268.1371263451574 1183,265 C 1219.3001129267968,261.8628736548426 1281.800032264799,305.3893924728122 1329,319 C 1376.199967735201,332.6106075271878 1408.0999838676005,316.3053037635939 1440,300 C 1440,300 1440,400 1440,400 Z" stroke="none" stroke-width="0" fill="#0f1d1c" fill-opacity="1" class="transition-all duration-300 ease-in-out delay-150 path-2"></path></svg>